<svg id="Layer_1" data-name="Layer 1" xmlns="http://www.w3.org/2000/svg" viewBox="0 0 710.19 465.76"><title>sb_icon</title><path d="M480.73,689.69c-3.89,10.85-1.51,19.66-3.62,28.82H399.87V260.58h78V482c36-28.08,72.79-42.72,115.66-37.25,43.27,5.52,76.94,26.92,100.89,62.64,35.21,52.5,29.56,126.28-11.63,171-26.66,29-59,45.6-98.71,47.76C545,728.24,511.46,714.76,480.73,689.69ZM567,513.45c-39,0-69.43,31.31-69.48,71.44s30.24,71.88,69,72.12c38.89.23,70.17-32.6,69.6-73.06C635.49,544.74,604.8,513.43,567,513.45Z" transform="translate(-137.93 -260.58)" style="fill:#08a5fe"/><path d="M358.22,476.33l-35.57,55.48c-10.95-6.17-20.56-12.18-30.68-17.13-12-5.87-24.57-10.49-38.42-8.92-11.79,1.34-19.42,8.29-21.58,19.52-1.76,9.16,2.87,17.25,14.47,21.71,15.07,5.79,30.6,10.39,45.95,15.47a127.72,127.72,0,0,1,28.48,13c51.57,32.65,54,94.13,4.93,130.31-17.67,13-37.47,20.11-59.74,20.51-40.19.71-77.34-8.63-110.64-31.66-6.64-4.6-13.07-9.49-17.49-15.42,16.41-16.08,32.59-31.95,49.5-48.54,11.76,11.31,25.7,23.29,43.74,29.35a74.08,74.08,0,0,0,32.38,3.21c9.3-1.06,16.23-6.42,18.91-15.25,2.81-9.2.72-17.9-6.9-24.67-5.47-4.87-12.05-7.48-18.79-9.94-17.87-6.51-36.18-11.66-53.54-19.7-28.43-13.17-45.53-33.74-45.92-66.07-.4-33.75,16.55-57.11,45.68-71.46,32.43-16,66.5-13.36,100.42-4.89C322.51,456,339.67,465.19,358.22,476.33Z" transform="translate(-137.93 -260.58)" style="fill:#08a5fe"/><path d="M846.3,639c2.19,2.34,1.79,4.8,1.79,7.11,0,23.74,0,47.48,0,72.28H767.44V639Z" transform="translate(-137.93 -260.58)" style="fill:#08a5fe"/></svg>